<?xml version="1.0" standalone="no"?>
<!DOCTYPE svg PUBLIC "-//W3C//DTD SVG 20010904//EN"
 "http://www.w3.org/TR/2001/REC-SVG-20010904/DTD/svg10.dtd">
<svg version="1.0" xmlns="http://www.w3.org/2000/svg"
 width="900.000000pt" height="802.000000pt" viewBox="0 0 900.000000 802.000000"
 preserveAspectRatio="xMidYMid meet">

<g transform="translate(0.000000,802.000000) scale(0.100000,-0.100000)"
fill="#000000" stroke="none">
<path d="M3970 7484 c-104 -11 -194 -29 -279 -56 -81 -25 -121 -31 -256 -38
-102 -5 -173 -13 -195 -23 -32 -13 -94 -73 -175 -167 -22 -26 -77 -58 -196
-117 -163 -80 -243 -132 -369 -243 -46 -40 -77 -59 -105 -64 -69 -13 -198 -57
-265 -91 -112 -56 -157 -143 -309 -587 -117 -344 -149 -448 -176 -582 -28
-132 -55 -238 -64 -248 -3 -4 -47 6 -96 21 -114 37 -293 58 -351 42 -66 -18
-68 -24 -44 -151 27 -143 53 -215 156 -429 l84 -175 -82 -195 c-45 -108 -105
-247 -135 -310 -29 -62 -53 -115 -53 -117 0 -23 198 99 281 173 24 21 39 31
34 23 -5 -8 -51 -82 -102 -164 -51 -82 -93 -153 -93 -157 0 -14 57 -39 103
-45 46 -7 221 12 248 27 17 9 43 92 57 184 l8 50 17 -100 c20 -111 15 -201
-24 -405 -43 -226 -149 -575 -233 -763 -26 -60 -31 -107 -10 -107 28 0 196
124 254 188 34 37 93 113 129 168 l68 102 21 -92 c12 -50 26 -156 32 -236 10
-149 40 -316 86 -475 30 -106 117 -295 136 -295 7 0 50 74 96 163 46 90 93
180 106 201 l23 39 98 -194 c54 -107 103 -204 109 -216 27 -56 42 -5 52 176
l7 124 24 -29 c13 -16 53 -71 88 -123 l65 -95 -61 -38 c-80 -51 -235 -128
-327 -162 -70 -27 -94 -48 -85 -74 5 -13 240 -135 302 -157 l35 -11 -206 -136
c-218 -144 -255 -177 -237 -209 8 -17 17 -19 57 -14 44 6 178 -8 189 -19 8 -7
-136 -484 -183 -607 -10 -25 -15 -53 -11 -62 10 -26 43 -20 69 12 20 25 49 37
212 86 104 31 201 62 216 70 l28 14 7 -52 c4 -29 9 -104 10 -167 2 -113 3
-115 25 -115 17 0 26 8 33 30 6 17 31 64 57 105 26 41 69 117 95 167 l48 93
33 -113 c18 -61 51 -161 72 -222 35 -96 43 -110 64 -113 18 -2 27 4 37 25 25
55 106 179 158 240 29 34 53 68 53 74 0 15 89 6 235 -24 106 -22 114 -26 190
-83 44 -34 105 -77 135 -97 l55 -36 161 -2 c195 -2 229 10 193 69 -8 13 -3 46
20 135 17 65 31 130 31 143 0 24 2 24 38 17 20 -4 96 -7 167 -7 104 1 149 7
228 27 181 48 405 156 587 285 115 81 330 292 389 382 24 36 47 65 51 65 5 0
65 -48 133 -107 160 -138 222 -180 259 -176 l29 3 4 223 c1 123 7 228 12 233
6 6 44 -33 101 -106 81 -101 96 -115 123 -115 39 0 47 20 89 223 18 86 36 157
40 157 9 0 84 -145 105 -205 23 -62 32 -75 57 -75 23 0 34 24 84 190 20 69 38
126 39 128 1 1 42 -13 89 -33 113 -45 240 -85 271 -85 19 0 25 5 25 23 -1 12
4 51 10 87 6 36 12 131 13 212 2 145 2 147 26 153 13 3 118 5 233 4 129 -1
214 3 220 9 25 25 2 47 -85 82 -48 19 -87 37 -87 42 0 15 226 80 290 83 39 2
66 7 68 14 2 7 -41 56 -97 110 l-101 98 147 105 c82 58 167 115 191 127 32 16
42 27 42 45 0 13 -8 27 -17 31 -10 4 -96 18 -192 31 -96 13 -176 26 -178 28
-3 2 41 30 96 61 83 47 101 61 101 81 0 28 -19 39 -80 47 -105 14 -309 47
-357 57 l-53 12 52 96 c28 53 66 117 84 141 19 24 34 48 34 52 0 5 -11 15 -24
24 -27 18 -62 12 -315 -54 -85 -22 -156 -39 -158 -37 -2 1 26 64 62 139 36 75
65 146 65 157 0 31 -26 35 -78 11 -26 -11 -103 -34 -172 -51 -69 -16 -164 -40
-211 -53 l-86 -24 -1 156 c0 183 -30 347 -81 457 l-31 65 38 -29 c83 -66 283
-254 370 -350 58 -62 99 -99 107 -95 18 6 13 100 -9 197 -39 165 -157 414
-265 555 -25 33 -25 34 -3 27 42 -14 23 20 -50 89 -52 50 -65 66 -47 62 24 -6
101 -12 509 -42 118 -9 261 -23 318 -31 56 -8 107 -12 112 -9 17 11 11 51 -12
81 -165 217 -397 457 -550 571 -51 38 -113 84 -138 102 -25 19 -37 31 -27 27
48 -16 223 -28 351 -23 266 9 520 78 471 126 -6 5 -55 19 -110 30 -132 27
-462 120 -611 172 -166 58 -320 125 -448 193 l-109 59 37 12 c53 19 72 39 116
128 53 105 52 113 -12 132 -55 16 -338 70 -537 101 -90 15 -108 20 -90 27 72
28 167 79 188 101 24 26 31 65 18 101 -6 18 0 25 38 43 62 30 58 44 -11 41
l-55 -3 -41 75 c-72 133 -268 404 -315 434 l-26 17 -106 -108 c-121 -124 -196
-220 -244 -314 l-33 -65 -29 34 c-81 94 -289 216 -625 367 -248 111 -483 166
-750 177 -63 3 -131 3 -150 1z m358 -119 c52 -8 142 -27 200 -40 114 -27 480
-146 522 -170 35 -20 24 -18 -38 5 -63 24 -105 26 -123 4 -8 -10 -15 -52 -17
-110 -3 -52 -7 -94 -11 -94 -46 2 -211 58 -298 103 -60 31 -167 76 -238 100
-72 25 -154 59 -183 76 -78 46 -177 75 -417 124 -11 2 12 7 50 11 39 4 75 9
80 12 23 9 388 -6 473 -21z m-718 -64 c192 -35 319 -69 445 -120 66 -27 153
-59 192 -72 40 -12 71 -24 70 -25 -1 -2 -43 3 -92 11 -50 7 -139 15 -200 16
-157 6 -153 -7 32 -100 307 -153 603 -325 925 -537 401 -266 701 -514 917
-758 102 -116 201 -246 201 -265 0 -15 20 -14 25 2 3 6 -1 55 -9 107 -8 52
-13 96 -12 97 1 2 13 -12 26 -30 80 -110 334 -431 389 -491 69 -75 201 -201
261 -249 29 -23 16 -19 -80 24 -275 122 -518 236 -568 267 -30 17 -58 32 -63
32 -17 0 -9 -24 16 -50 44 -46 112 -324 152 -616 14 -103 17 -195 15 -459 0
-181 -5 -346 -10 -365 l-9 -35 -22 75 c-43 140 -196 553 -214 578 -21 28 -29
2 -32 -98 -6 -196 -85 -543 -210 -915 l-73 -220 -1 87 c-1 123 -23 276 -81
562 -80 398 -118 526 -156 526 -18 0 -28 -25 -54 -127 -11 -45 -43 -154 -70
-241 -27 -87 -53 -176 -58 -197 -6 -31 -10 -6 -15 115 -21 480 -139 1074 -297
1493 -26 71 -42 123 -35 115 76 -81 388 -502 437 -589 23 -42 38 -48 58 -24
19 23 6 295 -19 407 -28 124 -83 282 -131 380 -88 176 -160 277 -160 224 0 -8
25 -65 55 -126 99 -198 157 -390 195 -643 11 -73 23 -145 26 -162 3 -19 -15 6
-51 68 -131 230 -266 409 -488 648 -166 179 -237 236 -237 189 0 -5 49 -66
109 -135 l110 -125 36 -118 c20 -64 38 -124 40 -132 3 -8 -136 128 -309 303
-173 174 -321 317 -329 317 -9 0 -19 -4 -22 -10 -3 -5 22 -81 56 -167 33 -87
96 -251 139 -365 43 -113 86 -221 96 -239 l17 -33 -34 28 c-116 96 -274 247
-363 346 -189 211 -266 304 -254 311 6 4 64 10 129 14 124 8 166 21 141 47
-15 15 -143 18 -262 5 l-75 -8 -18 32 c-14 26 -20 29 -32 19 -8 -7 -15 -25
-15 -40 0 -24 -7 -30 -60 -49 -32 -12 -62 -26 -65 -31 -14 -22 8 -26 70 -15
50 10 67 10 70 1 1 -6 20 -78 40 -161 55 -222 111 -416 151 -522 21 -55 33
-102 29 -113 -4 -14 -2 -20 8 -20 15 0 55 -86 49 -104 -2 -5 2 -12 8 -16 8 -5
8 -9 -2 -12 -8 -3 -50 39 -108 110 -153 185 -205 265 -274 425 -25 56 -45 73
-47 40 -9 -116 22 -336 92 -648 49 -223 73 -303 111 -380 l30 -59 -35 27 c-19
15 -129 95 -244 178 -506 369 -738 563 -845 707 -70 95 -81 72 -67 -142 13
-198 49 -418 105 -645 25 -101 43 -185 42 -187 -6 -6 -173 207 -220 281 -25
39 -70 111 -99 160 -30 50 -59 88 -64 85 -12 -6 -8 -248 6 -370 16 -136 65
-359 127 -577 32 -111 54 -199 49 -196 -4 2 -36 37 -70 77 -34 40 -115 131
-179 203 l-117 130 -16 304 c-9 167 -20 374 -26 459 -5 85 -12 327 -16 538 -3
210 -10 382 -14 382 -16 0 -29 -39 -46 -137 -39 -222 -8 -922 72 -1648 25
-225 29 -231 -146 220 -120 310 -158 395 -177 395 -21 0 -12 -45 44 -220 83
-261 256 -673 318 -755 28 -38 32 -3 22 187 -6 103 -8 184 -5 180 84 -102 128
-163 136 -187 14 -39 204 -320 249 -366 19 -19 32 -38 29 -40 -3 -3 21 -100
54 -215 32 -115 62 -225 66 -244 4 -19 20 -62 35 -95 24 -51 39 -66 94 -103
39 -26 66 -50 66 -60 0 -10 6 -42 14 -71 l14 -53 -65 63 c-82 81 -255 273
-328 364 -63 78 -315 451 -315 466 0 5 -7 9 -15 9 -8 0 -15 -6 -15 -12 1 -36
192 -346 310 -503 153 -204 465 -494 496 -462 6 6 -7 77 -32 173 -5 20 -1 19
93 -13 54 -18 105 -33 113 -33 12 0 18 -22 28 -97 6 -54 34 -186 61 -293 26
-107 48 -196 47 -196 -1 -1 -53 41 -116 93 -213 176 -361 317 -517 493 -254
286 -273 304 -288 281 -6 -11 13 -641 21 -680 3 -14 -17 28 -44 94 -27 66 -90
208 -139 315 -50 107 -127 283 -171 390 -74 180 -80 202 -86 285 -7 103 -17
147 -34 153 -9 3 -12 -24 -13 -100 0 -56 -6 -213 -13 -348 l-12 -245 -28 115
c-140 577 -207 856 -280 1160 -46 195 -89 367 -95 382 -7 18 -6 35 2 57 6 17
8 33 4 37 -3 4 -62 -49 -129 -118 -68 -68 -160 -154 -204 -190 l-82 -67 55 97
c174 307 276 559 368 912 30 113 77 279 105 370 28 91 78 255 112 365 79 260
220 687 247 746 l21 46 127 37 c69 21 188 49 262 63 190 36 211 42 218 60 9
24 -17 34 -85 30 l-62 -3 117 76 c65 42 154 96 198 120 l80 44 -28 -33 c-60
-72 -88 -161 -50 -161 19 0 17 -3 161 176 57 70 124 159 149 198 75 119 63
112 205 105 68 -4 175 -16 238 -28z m702 -292 c81 -16 281 -63 445 -105 168
-43 324 -78 358 -79 33 -2 103 -10 155 -19 165 -27 338 -39 570 -39 l225 0
-85 -24 c-47 -13 -137 -33 -201 -45 l-116 -22 -30 22 c-35 25 -63 29 -63 9 0
-7 64 -73 142 -147 158 -150 242 -256 299 -375 39 -81 94 -255 87 -276 -2 -6
-25 22 -50 63 -26 40 -68 98 -93 128 -25 30 -69 83 -97 118 -73 90 -82 67 -20
-49 66 -124 134 -283 188 -446 24 -73 44 -135 44 -139 0 -4 -22 27 -48 67
-215 329 -692 711 -1380 1106 -170 97 -299 165 -467 246 -116 56 -113 56 137
6z m2041 -778 c96 -33 141 -56 259 -134 178 -116 260 -162 413 -225 205 -86
496 -162 621 -162 19 0 34 -4 34 -9 0 -25 -606 -36 -709 -13 -65 15 -84 5 -61
-32 8 -14 85 -79 170 -147 85 -67 199 -165 254 -218 139 -135 373 -394 350
-388 -104 30 -300 55 -529 67 -104 5 -230 12 -280 16 -49 3 -94 6 -100 5 -25
-2 -253 252 -594 660 -110 132 -138 180 -198 339 -3 8 23 -28 57 -80 35 -52
67 -108 72 -123 13 -37 32 -29 36 14 6 79 -1 74 122 71 95 -3 111 -2 116 13 9
21 -8 57 -46 98 -39 41 -276 341 -289 364 -7 13 17 5 89 -29 53 -26 149 -65
213 -87z m-1851 -646 c144 -164 228 -242 331 -309 l87 -57 25 -82 c13 -45 28
-97 31 -116 7 -32 6 -34 -18 -28 -151 38 -493 0 -742 -82 l-114 -38 -15 51
c-16 54 -14 59 32 85 8 5 11 16 8 25 -5 13 -11 14 -33 6 -15 -6 -31 -7 -35 -3
-4 4 -34 100 -67 213 -92 311 -140 482 -132 473 4 -4 40 -51 81 -103 126 -163
212 -261 331 -376 126 -122 274 -223 340 -232 41 -5 45 1 28 40 -5 13 -52 131
-104 263 -52 132 -113 283 -135 335 -27 61 -35 88 -23 75 10 -11 66 -74 124
-140z m-1691 -555 c147 -170 455 -417 748 -599 152 -94 351 -196 361 -184 5 4
-12 87 -36 183 -37 145 -70 282 -150 629 -3 14 21 -11 57 -59 35 -46 90 -110
123 -143 74 -73 215 -179 230 -174 6 2 10 15 8 29 -2 15 3 28 11 31 12 4 15
-9 19 -66 7 -110 57 -196 153 -267 53 -39 56 -40 138 -40 92 0 235 23 278 45
14 8 47 37 72 65 71 79 99 191 74 295 -8 33 -17 67 -21 76 -5 12 3 20 34 32
23 9 39 20 36 25 -3 6 8 12 24 14 27 4 31 1 40 -31 78 -298 181 -875 210
-1184 14 -158 20 -161 83 -44 53 98 96 215 128 352 l23 100 16 -105 c9 -58 38
-231 65 -385 l48 -281 -30 -33 -31 -33 -107 31 c-118 34 -153 38 -161 18 -2
-7 18 -63 45 -125 41 -91 47 -113 36 -122 -10 -9 -56 -9 -176 -1 -163 11 -189
8 -189 -23 0 -6 27 -51 61 -99 34 -49 59 -89 58 -91 -189 -119 -259 -171 -259
-192 0 -35 33 -39 85 -11 l44 25 6 -30 c4 -16 5 -31 3 -33 -1 -1 -52 -17 -113
-35 -133 -38 -314 -115 -403 -170 -35 -23 -66 -40 -67 -38 -2 2 -10 23 -19 48
-18 52 -15 55 62 63 32 4 79 14 105 23 39 13 48 20 45 38 l-3 21 -305 -3
c-465 -5 -726 17 -1010 86 -185 45 -296 90 -338 135 -12 14 -33 77 -56 171
-21 81 -50 183 -66 225 -16 42 -42 111 -58 153 -16 42 -47 105 -69 140 -60 95
-58 92 -29 73 24 -16 26 -16 32 0 11 27 -4 141 -36 279 -29 125 -31 164 -6
130 12 -15 14 -15 38 0 27 18 38 13 38 -16 0 -10 9 -36 19 -57 45 -88 171
-159 261 -146 98 13 225 96 273 178 37 63 60 152 54 206 -8 66 -44 157 -78
195 l-28 32 27 28 27 27 -23 6 c-22 5 -22 6 -6 24 22 24 11 35 -20 21 -21 -9
-23 -8 -19 9 3 10 2 19 -2 19 -10 0 -162 -91 -252 -151 l-72 -48 -6 37 c-4 20
-24 127 -46 237 -21 110 -50 274 -64 365 -14 91 -27 176 -30 190 l-5 25 18
-25 c9 -13 42 -54 73 -90z m3629 -73 c80 -39 199 -89 265 -112 l120 -42 67
-83 c96 -118 223 -383 262 -545 7 -29 7 -29 -22 10 -16 22 -70 79 -118 126
-203 197 -399 328 -436 291 -7 -7 8 -54 45 -144 62 -151 90 -273 107 -473 15
-167 12 -215 -15 -225 -19 -7 -20 -4 -17 116 3 118 2 124 -17 124 -50 0 -200
-84 -298 -167 -35 -30 -63 -50 -63 -46 0 5 5 26 10 48 5 22 14 100 20 173 26
310 -35 732 -145 998 -19 46 -35 86 -35 89 0 3 28 -11 63 -31 34 -20 127 -68
207 -107z m-1450 8 c0 -9 -6 -12 -16 -8 -13 5 -13 7 -2 14 17 11 18 11 18 -6z
m-2411 -513 c21 -31 75 -98 119 -148 l80 -90 -94 -88 c-52 -48 -94 -84 -94
-79 0 5 -11 58 -25 118 -21 96 -53 273 -71 400 l-6 40 26 -48 c14 -27 44 -74
65 -105z m3502 -507 c29 -88 59 -177 65 -198 l12 -38 -27 18 c-16 10 -56 36
-90 58 -60 39 -62 41 -57 75 3 19 11 86 18 147 7 62 15 109 19 105 4 -4 31
-79 60 -167z m-3453 77 c-13 -16 -25 -25 -26 -20 -2 4 7 17 20 28 32 27 33 25
6 -8z m4012 -212 c-15 -134 -10 -154 32 -132 13 6 102 30 198 52 184 42 271
68 356 105 l52 23 -64 -133 c-59 -122 -76 -177 -56 -188 19 -10 203 16 327 48
77 19 140 33 141 32 1 -1 -30 -53 -68 -116 -38 -63 -67 -121 -66 -130 6 -28
135 -70 367 -119 l34 -7 -72 -40 c-40 -21 -77 -48 -83 -58 -15 -28 -2 -49 29
-46 16 1 48 -8 73 -19 42 -20 138 -44 223 -57 l39 -6 -74 -51 c-84 -57 -207
-155 -225 -178 -18 -22 -16 -40 5 -48 9 -4 47 -39 84 -77 l67 -71 -97 -16
c-53 -9 -133 -29 -177 -44 -44 -15 -92 -26 -107 -25 -17 1 -28 -4 -28 -12 0
-18 47 -61 95 -86 l40 -20 -163 2 c-191 2 -192 2 -192 -95 0 -75 -30 -361 -38
-370 -4 -3 -50 11 -102 32 -101 40 -174 56 -214 46 -19 -5 -32 -26 -66 -113
-24 -60 -46 -112 -50 -116 -4 -5 -12 6 -19 23 -16 49 -113 189 -133 196 -11 3
-25 0 -33 -6 -21 -17 -50 -101 -75 -220 -12 -58 -23 -106 -25 -108 -1 -1 -42
39 -91 89 -96 99 -173 166 -193 171 -11 2 -13 -47 -12 -256 1 -142 4 -263 8
-270 4 -6 -6 -2 -22 8 -34 22 -325 253 -340 270 -5 6 -28 24 -50 41 -22 16
-59 47 -82 68 -38 35 -44 37 -50 21 -4 -10 -13 -25 -20 -34 -7 -8 -19 -24 -26
-34 -13 -18 -14 -17 -9 12 3 24 -2 37 -23 58 -22 22 -32 25 -64 20 l-38 -6 -7
43 c-6 36 -50 235 -62 275 -5 17 -70 15 -189 -8 -55 -10 -102 -17 -103 -15 -2
2 14 27 36 57 51 67 152 235 152 251 0 7 -56 26 -140 47 -77 19 -140 37 -140
40 0 3 17 15 38 27 21 12 70 45 110 75 70 52 88 83 47 83 -21 0 -56 43 -178
221 l-76 112 37 -4 c67 -6 297 -12 310 -7 19 7 15 23 -38 149 -27 65 -50 120
-50 121 0 2 9 -1 19 -7 32 -17 203 -60 239 -60 17 0 32 -3 33 -7 0 -5 8 -62
17 -127 16 -115 33 -153 49 -109 3 10 41 90 83 178 94 194 140 315 185 489 19
72 34 133 35 135 0 1 26 -20 57 -49 31 -29 81 -65 110 -82 44 -25 55 -36 65
-71 6 -23 15 -46 19 -51 14 -16 37 14 50 66 12 47 21 57 114 134 193 160 260
213 264 208 2 -2 -2 -58 -9 -124z m-4883 -655 c-47 -67 -115 -147 -234 -273
-117 -124 -156 -156 -120 -100 33 50 148 323 172 405 29 97 69 317 81 433 l7
75 57 -255 58 -255 -21 -30z m374 -332 c27 -73 69 -175 94 -228 l44 -96 -45
-62 c-52 -70 -88 -138 -130 -246 l-28 -73 -19 53 c-24 71 -107 394 -107 417 1
9 11 -8 25 -38 13 -30 29 -55 37 -55 15 0 42 194 54 395 6 101 9 119 17 95 5
-16 31 -89 58 -162z m3057 -95 c28 -37 47 -70 41 -73 -5 -4 -9 -2 -9 4 0 6
-14 18 -31 26 -37 19 -85 12 -102 -16 -11 -17 -13 -14 -24 28 -10 39 -10 49 1
55 7 4 24 16 37 27 13 11 27 19 30 18 4 -1 29 -32 57 -69z m-2593 -88 c58 -77
133 -168 189 -229 37 -40 39 -43 16 -37 -14 3 -75 6 -136 6 l-111 0 -7 133
c-4 72 -10 150 -13 172 -6 46 -5 45 62 -45z m823 -144 c26 -24 89 -75 141
-115 135 -103 165 -95 110 28 -17 39 -30 73 -28 75 2 1 114 1 249 -2 l245 -4
30 -50 c31 -51 157 -188 208 -226 l29 -21 -88 -113 c-48 -62 -105 -134 -126
-161 -28 -33 -37 -53 -33 -67 13 -41 106 -171 167 -233 77 -79 77 -80 -10
-234 -137 -247 -144 -262 -109 -264 7 0 45 -52 86 -115 41 -64 85 -123 98
-131 13 -8 23 -20 23 -26 0 -18 -92 -251 -104 -263 -6 -6 -62 -19 -124 -28
l-113 -17 -44 49 c-25 27 -103 93 -173 147 l-129 98 23 41 c12 23 35 71 49
109 20 50 32 67 46 67 33 0 21 32 -28 79 -27 26 -115 98 -197 161 -82 63 -157
122 -168 131 -17 13 -19 23 -13 65 4 27 16 77 27 112 16 53 22 62 42 62 13 0
29 6 35 14 24 29 -28 65 -250 177 l-219 109 0 91 0 91 28 -22 c64 -50 192
-130 257 -161 39 -19 72 -37 73 -41 2 -5 13 -8 24 -8 19 0 20 4 15 53 -4 29
-32 157 -62 283 -30 126 -59 246 -64 267 -8 33 -7 37 10 37 11 0 41 -20 67
-44z m167 1 c18 -37 31 -86 22 -81 -21 12 -137 95 -137 98 0 3 114 -14 115
-17z m683 -48 l11 -41 -34 32 c-35 34 -37 50 -6 50 13 0 22 -12 29 -41z
m-1467 -125 c65 -7 69 -8 139 -73 l72 -66 -1 -129 -2 -128 44 -42 c27 -25 107
-74 208 -125 90 -46 165 -85 167 -87 2 -1 -13 -37 -34 -80 -20 -43 -39 -99
-42 -125 l-4 -46 83 -84 c93 -93 229 -206 296 -246 24 -13 43 -27 43 -29 0
-22 -86 -164 -130 -214 -15 -17 -20 -34 -17 -53 l4 -29 -101 7 c-77 5 -105 3
-117 -7 -28 -22 -142 -171 -174 -226 -29 -51 -45 -64 -45 -39 0 14 -88 242
-127 329 -43 97 -65 87 -148 -72 -48 -92 -94 -168 -96 -160 -14 55 -33 192
-27 198 11 11 -2 50 -19 56 -8 3 -34 -5 -58 -19 -39 -23 -374 -139 -381 -132
-2 2 4 25 12 52 30 99 106 431 111 486 5 50 3 58 -13 62 -18 6 -132 27 -143
27 -3 0 17 14 45 31 92 59 229 167 288 227 56 58 66 82 35 88 -7 2 -90 34
-182 71 l-168 67 96 32 c115 38 193 78 298 151 68 48 77 58 77 86 0 34 -58
136 -116 205 l-37 42 49 0 c27 0 79 -3 115 -6z m2393 -96 c-4 -7 -24 -35 -45
-63 -44 -60 -55 -91 -39 -110 9 -11 17 -12 30 -5 10 6 52 10 92 10 40 0 104 7
143 15 86 18 83 19 87 -2 2 -12 -11 -24 -42 -40 -63 -32 -455 -333 -565 -434
l-42 -38 -174 -6 c-96 -3 -182 -8 -191 -11 -12 -4 -18 0 -18 11 0 30 -31 76
-111 163 l-80 87 268 134 c277 138 433 209 588 267 102 37 109 39 99 22z m449
-447 c4 -1 7 -10 7 -21 0 -24 -40 -36 -69 -20 -20 10 -27 30 -16 42 3 3 20 4
38 2 18 -1 35 -3 40 -3z m5 -135 c-36 -69 -55 -68 -43 3 5 31 12 39 38 48 18
5 33 11 35 12 1 0 -12 -28 -30 -63z m-58 30 c0 -18 -142 -176 -216 -240 -142
-121 -271 -195 -437 -251 -155 -51 -245 -67 -422 -72 -175 -5 -248 3 -253 28
-2 14 6 15 65 7 179 -25 519 46 760 157 173 80 397 256 458 362 17 29 45 35
45 9z"/>
<path d="M3107 7053 c-7 -12 -127 -241 -154 -293 -12 -25 -24 -64 -27 -87 -2
-32 -10 -48 -30 -64 -27 -21 -35 -49 -13 -49 12 0 199 80 410 175 59 26 107
52 107 57 0 16 -26 19 -69 9 l-43 -9 23 24 c12 13 27 24 32 24 14 0 324 -223
492 -354 83 -64 226 -180 319 -259 92 -78 174 -143 182 -145 33 -8 6 28 -113
150 -218 222 -441 403 -782 633 -252 171 -321 210 -334 188z m54 -183 c-31
-36 -71 -88 -89 -117 -29 -46 -69 -83 -88 -83 -4 0 0 8 8 18 24 26 103 190
123 253 l18 57 42 -32 41 -31 -55 -65z m97 -50 c-28 -29 -67 -57 -89 -65 -21
-8 -39 -12 -39 -9 0 3 28 41 61 85 l61 79 28 -20 27 -19 -49 -51z"/>
<path d="M2358 6588 c-8 -7 -20 -26 -26 -43 -6 -16 -29 -77 -52 -135 -61 -156
-80 -246 -80 -377 0 -108 10 -145 31 -112 8 13 33 113 44 179 5 29 16 41 63
72 31 21 136 100 232 177 96 77 175 139 176 138 2 -1 -1 -20 -6 -42 -21 -87
-2 -230 30 -230 12 0 14 9 10 40 -12 96 -1 265 16 265 6 0 17 6 23 14 32 38
-96 66 -305 66 -97 0 -145 -4 -156 -12z m262 -65 c83 -5 90 -7 69 -19 -13 -7
-42 -14 -64 -14 -22 -1 -91 -9 -153 -19 -94 -14 -112 -15 -107 -3 3 8 8 25 11
38 6 23 10 24 79 24 39 0 114 -3 165 -7z m-59 -101 c-29 -20 -223 -94 -229
-87 -3 3 0 23 7 44 l11 39 78 7 c42 3 86 7 97 9 11 2 29 4 40 4 18 1 18 0 -4
-16z m-183 -139 c-18 -15 -45 -38 -60 -51 l-27 -25 11 36 c9 30 19 39 52 51
59 21 62 19 24 -11z"/>
<path d="M2812 6435 c6 -63 31 -124 56 -133 17 -5 15 22 -9 116 -15 56 -27 82
-37 82 -12 0 -14 -12 -10 -65z"/>
<path d="M2611 5300 c-58 -67 -91 -118 -91 -140 0 -21 37 -9 67 23 30 31 113
163 113 179 0 25 -36 0 -89 -62z"/>
<path d="M5445 5278 c-3 -8 6 -42 20 -74 47 -106 156 -416 191 -544 38 -136
94 -422 94 -475 0 -37 17 -56 31 -34 5 8 9 25 9 39 0 14 14 60 31 103 55 142
70 219 75 387 5 165 -11 320 -33 328 -10 3 -13 -30 -13 -143 0 -137 -13 -258
-44 -423 l-12 -67 -13 75 c-37 222 -164 586 -263 752 -46 78 -65 97 -73 76z"/>
<path d="M6420 5800 c0 -6 35 -52 78 -103 44 -51 118 -143 166 -206 93 -120
92 -123 -14 -50 -42 28 -289 149 -305 149 -41 0 -16 -19 175 -133 69 -41 183
-114 253 -161 71 -48 132 -85 135 -82 8 8 -131 213 -235 346 -81 105 -223 250
-243 250 -6 0 -10 -5 -10 -10z"/>
<path d="M2943 4544 c-32 -16 -48 -39 -37 -55 7 -11 73 22 98 50 19 21 19 21
-5 21 -13 0 -38 -8 -56 -16z"/>
<path d="M4497 3643 c-4 -3 -7 -19 -7 -35 0 -145 -218 -276 -348 -209 -60 31
-73 27 -107 -32 -24 -41 -42 -57 -85 -80 -69 -34 -141 -44 -196 -25 -44 16
-64 13 -64 -8 0 -20 39 -42 92 -49 92 -14 221 44 282 126 l30 39 24 -23 c20
-19 34 -22 105 -22 67 0 91 5 132 25 95 46 175 140 190 221 10 53 -21 99 -48
72z"/>
<path d="M3862 2323 c-16 -21 -50 -71 -76 -110 -25 -40 -48 -73 -51 -73 -2 0
-19 13 -37 28 -63 55 -130 102 -144 102 -23 0 -16 -35 12 -61 15 -13 67 -71
117 -129 112 -131 123 -140 158 -140 24 0 29 4 29 25 0 14 -15 41 -35 64 -19
21 -35 44 -35 51 0 6 27 68 60 137 33 69 60 130 60 134 0 21 -31 6 -58 -28z"/>
<path d="M3772 1658 c8 -24 293 -367 306 -367 26 -2 5 58 -42 122 -18 25 -21
42 -21 133 1 57 -2 104 -6 104 -14 0 -30 -29 -41 -78 l-12 -50 -79 74 c-72 68
-115 93 -105 62z"/>
<path d="M3952 945 c6 -26 238 -255 258 -255 28 0 25 20 -9 60 -21 26 -30 50
-36 96 -3 33 -10 66 -15 74 -13 21 -40 -6 -40 -41 l0 -29 -67 55 c-66 55 -97
68 -91 40z"/>
</g>
</svg>
